:FULLY-SPECIFIED
:FORCE-ALL-JOINTS-BE-3DOF
:DEGREES
275
root 9.83611 16.7061 1.73668 6.50138 -2.07086 1.95256
lfemur -18.7691 6.55977 -29.0222
ltibia 29.4059 0 0
lfoot -17.4711 5.34636 0
ltoes -2.38009 0 0
rfemur -22.1694 -0.153875 16.7212
rtibia 43.8998 0 0
rfoot -12.7299 -8.58469 0
rtoes -22.1624 0 0
lowerback -5.37166 -1.74 -3.41589
upperback -0.935172 -2.17371 1.93292
thorax 2.34064 -1.13892 3.72912
lowerneck -21.1558 -4.22169 -12.0173
upperneck 21.5851 -5.0768 11.9815
head 11.1569 -1.87856 5.63744
lclavicle 1.53584e-14 7.16612e-15 0
lhumerus -20.7153 -13.0157 85.3609
lradius 23.1153 0 0
lwrist -0.609785 0 0
lhand -14.2372 -23.9048 0
lfingers 7.12502 0 0
lthumb 11.8985 5.70296 0
rclavicle 1.53584e-14 7.16612e-15 0
rhumerus -47.1288 7.78474 -84.1646
rradius 41.3115 0 0
rwrist -23.2333 0 0
rhand -29.5281 -21.2001 0
rfingers 7.12502 0 0
rthumb -2.86171 -51.1618 0
276
root 9.85327 16.7186 1.86657 6.36918 -1.85463 2.08063
lfemur -17.7018 6.40217 -29.1351
ltibia 28.7481 0 0
lfoot -17.792 5.3494 0
ltoes -2.57036 0 0
rfemur -23.4782 -0.187822 16.6646
rtibia 44.2759 0 0
rfoot -13.6766 -9.05579 0
rtoes -22.3728 0 0
lowerback -5.3408 -1.89039 -3.50784
upperback -0.845017 -2.37007 1.94976
thorax 2.43331 -1.23988 3.78364
lowerneck -21.237 -4.16754 -11.9518
upperneck 21.7208 -5.00082 11.8922
head 11.2047 -1.84637 5.60983
lclavicle 1.69516e-14 7.59909e-15 0
lhumerus -19.8239 -13.4267 85.3485
lradius 23.3226 0 0
lwrist -0.248377 0 0
lhand -14.4934 -23.965 0
lfingers 7.12502 0 0
lthumb 11.6516 5.66049 0
rclavicle 1.69516e-14 7.59909e-15 0
rhumerus -47.0926 7.77678 -84.0322
rradius 41.3633 0 0
rwrist -23.2818 0 0
rhand -29.5589 -21.1968 0
rfingers 7.12502 0 0
rthumb -2.89142 -51.158 0
277
root 9.87043 16.731 1.99646 6.24149 -1.63796 2.20486
lfemur -16.6402 6.24892 -29.2372
ltibia 28.0924 0 0
lfoot -18.0901 5.34657 0
ltoes -2.76331 0 0
rfemur -24.7572 -0.219594 16.6104
rtibia 44.6366 0 0
rfoot -14.5885 -9.50531 0
rtoes -22.574 0 0
lowerback -5.31259 -2.03768 -3.59766
upperback -0.758046 -2.56231 1.96635
thorax 2.52389 -1.3387 3.83689
lowerneck -21.3139 -4.11563 -11.8893
upperneck 21.8514 -4.92814 11.8069
head 11.2505 -1.81559 5.58348
lclavicle 1.85065e-14 8.00114e-15 0
lhumerus -18.9659 -13.8396 85.3475
lradius 23.5333 0 0
lwrist 0.107185 0 0
lhand -14.7366 -24.0239 0
lfingers 7.12502 0 0
lthumb 11.4173 5.61839 0
rclavicle 1.85065e-14 8.00114e-15 0
rhumerus -47.0591 7.76805 -83.903
rradius 41.4066 0 0
rwrist -23.3235 0 0
rhand -29.5879 -21.1963 0
rfingers 7.12502 0 0
rthumb -2.91949 -51.157 0
278
root 9.88759 16.7434 2.12636 6.11886 -1.42138 2.3249
lfemur -15.5861 6.1008 -29.3278
ltibia 27.4405 0 0
lfoot -18.363 5.33727 0
ltoes -2.95834 0 0
rfemur -26.0023 -0.249113 16.5583
rtibia 44.9808 0 0
rfoot -15.4608 -9.93115 0
rtoes -22.7653 0 0
lowerback -5.28726 -2.18147 -3.68521
upperback -0.674673 -2.74989 1.9826
thorax 2.61205 -1.43509 3.8887
lowerneck -21.3862 -4.06614 -11.83
upperneck 21.9763 -4.85905 11.7258
head 11.2941 -1.78634 5.55853
lclavicle 2.0017e-14 8.36933e-15 0
lhumerus -18.1444 -14.2538 85.3583
lradius 23.7472 0 0
lwrist 0.45547 0 0
lhand -14.9654 -24.0814 0
lfingers 7.12502 0 0
lthumb 11.1968 5.57676 0
rclavicle 2.0017e-14 8.36933e-15 0
rhumerus -47.0288 7.75841 -83.7777
rradius 41.4402 0 0
rwrist -23.3579 0 0
rhand -29.615 -21.1985 0
rfingers 7.12502 0 0
rthumb -2.94565 -51.1588 0
279
root 9.90475 16.7558 2.25625 6.00185 -1.20539 2.44041
lfemur -14.5413 5.9586 -29.4063
ltibia 26.7941 0 0
lfoot -18.6086 5.3209 0
ltoes -3.1548 0 0
rfemur -27.2095 -0.276304 16.5083
rtibia 45.3078 0 0
rfoot -16.2892 -10.3312 0
rtoes -22.9461 0 0
lowerback -5.26502 -2.32133 -3.77029
upperback -0.595314 -2.93225 1.9984
thorax 2.69743 -1.52877 3.9389
lowerneck -21.4536 -4.01928 -11.7742
upperneck 22.0952 -4.79383 11.6495
head 11.3355 -1.75875 5.53508
lclavicle 2.14769e-14 8.70072e-15 0
lhumerus -17.3628 -14.6686 85.3815
lradius 23.964 0 0
lwrist 0.795051 0 0
lhand -15.1784 -24.1371 0
lfingers 7.12502 0 0
lthumb 10.9916 5.53574 0
rclavicle 2.14769e-14 8.70072e-15 0
rhumerus -47.0024 7.74774 -83.6569
rradius 41.4632 0 0
rwrist -23.3842 0 0
rhand -29.6398 -21.2034 0
rfingers 7.12502 0 0
rthumb -2.9696 -51.1632 0
280
root 9.92191 16.7682 2.38615 5.89103 -0.990511 2.55104
lfemur -13.5078 5.82309 -29.4722
ltibia 26.1548 0 0
lfoot -18.8246 5.29687 0
ltoes -3.35209 0 0
rfemur -28.3747 -0.301091 16.4601
rtibia 45.6165 0 0
rfoot -17.0691 -10.7034 0
rtoes -23.1157 0 0
lowerback -5.24611 -2.45686 -3.85273
upperback -0.520382 -3.10885 2.01367
thorax 2.77971 -1.61946 3.98733
lowerneck -21.5157 -3.97524 -11.722
upperneck 22.2076 -4.73276 11.5782
head 11.3744 -1.73292 5.51327
lclavicle 2.28799e-14 8.99236e-15 0
lhumerus -16.6245 -15.0834 85.4176
lradius 24.1833 0 0
lwrist 1.1245 0 0
lhand -15.3743 -24.191 0
lfingers 7.12502 0 0
lthumb 10.8029 5.49544 0
rclavicle 2.28799e-14 8.99236e-15 0
rhumerus -46.9805 7.73589 -83.541
rradius 41.4744 0 0
rwrist -23.4018 0 0
rhand -29.6621 -21.2111 0
rfingers 7.12502 0 0
rthumb -2.99107 -51.1705 0
281
root 9.93907 16.7806 2.51604 5.78694 -0.777265 2.65645
lfemur -12.4874 5.69508 -29.5247
ltibia 25.5242 0 0
lfoot -19.009 5.26458 0
ltoes -3.54959 0 0
rfemur -29.494 -0.323396 16.4138
rtibia 45.906 0 0
rfoot -17.7959 -11.0456 0
rtoes -23.2734 0 0
lowerback -5.23076 -2.58765 -3.93238
upperback -0.450293 -3.27913 2.02831
thorax 2.85852 -1.70686 4.03382
lowerneck -21.5722 -3.93421 -11.6739
upperneck 22.3131 -4.67615 11.5123
head 11.4107 -1.70899 5.49321
lclavicle 2.42198e-14 9.24132e-15 0
lhumerus -15.9327 -15.4976 85.467
lradius 24.4049 0 0
lwrist 1.44238 0 0
lhand -15.5516 -24.2427 0
lfingers 7.12502 0 0
lthumb 10.632 5.45596 0
rclavicle 2.42198e-14 9.24132e-15 0
rhumerus -46.9636 7.72273 -83.4308
rradius 41.4729 0 0
rwrist -23.4099 0 0
rhand -29.6815 -21.2213 0
rfingers 7.12502 0 0
rthumb -3.00979 -51.1803 0
282
root 9.95623 16.793 2.64594 5.69016 -0.566164 2.7563
lfemur -11.482 5.57533 -29.5634
ltibia 24.9039 0 0
lfoot -19.1595 5.22342 0
ltoes -3.74666 0 0
rfemur -30.5632 -0.343143 16.3692
rtibia 46.1755 0 0
rfoot -18.4651 -11.3558 0
rtoes -23.4185 0 0
lowerback -5.21919 -2.71328 -4.00905
upperback -0.38546 -3.44254 2.04221
thorax 2.93353 -1.79069 4.07821
lowerneck -21.6228 -3.89639 -11.63
upperneck 22.4112 -4.62427 11.4522
head 11.4442 -1.68706 5.47503
lclavicle 2.54903e-14 9.44464e-15 0
lhumerus -15.2907 -15.9107 85.5303
lradius 24.6285 0 0
lwrist 1.74728 0 0
lhand -15.7091 -24.2921 0
lfingers 7.12502 0 0
lthumb 10.4803 5.41744 0
rclavicle 2.54903e-14 9.44464e-15 0
rhumerus -46.9524 7.70813 -83.3268
rradius 41.4577 0 0
rwrist -23.408 0 0
rhand -29.6977 -21.2342 0
rfingers 7.12502 0 0
rthumb -3.02546 -51.1929 0
283
root 9.9734 16.8054 2.77583 5.60124 -0.357723 2.85024
lfemur -10.4934 5.46463 -29.5877
ltibia 24.2956 0 0
lfoot -19.2739 5.17279 0
ltoes -3.9427 0 0
rfemur -31.5784 -0.360257 16.3261
rtibia 46.424 0 0
rfoot -19.0723 -11.6319 0
rtoes -23.5503 0 0
lowerback -5.21164 -2.83335 -4.08258
upperback -0.326297 -3.59853 2.0553
thorax 3.0044 -1.87067 4.12034
lowerneck -21.6671 -3.86198 -11.5906
upperneck 22.5014 -4.57741 11.3983
head 11.4748 -1.66725 5.45885
lclavicle 2.66853e-14 9.5994e-15 0
lhumerus -14.7019 -16.3219 85.6081
lradius 24.8537 0 0
lwrist 2.03775 0 0
lhand -15.8452 -24.3389 0
lfingers 7.12502 0 0
lthumb 10.3492 5.37998 0
rclavicle 2.66853e-14 9.5994e-15 0
rhumerus -46.9474 7.69195 -83.2295
rradius 41.4276 0 0
rwrist -23.3952 0 0
rhand -29.7105 -21.2496 0
rfingers 7.12502 0 0
rthumb -3.03782 -51.2081 0
284
root 9.99056 16.8179 2.90572 5.52073 -0.15246 2.93793
lfemur -9.52356 5.36377 -29.5968
ltibia 23.7009 0 0
lfoot -19.3501 5.11209 0
ltoes -4.13707 0 0
rfemur -32.5354 -0.374661 16.2844
rtibia 46.6507 0 0
rfoot -19.6127 -11.8717 0
rtoes -23.6681 0 0
lowerback -5.20832 -2.94743 -4.1528
upperback -0.27322 -3.74655 2.06747
thorax 3.07078 -1.94652 4.16004
lowerneck -21.7049 -3.83117 -11.5561
upperneck 22.5835 -4.53586 11.3508
head 11.5022 -1.64969 5.44478
lclavicle 2.77985e-14 9.70265e-15 0
lhumerus -14.1695 -16.7308 85.7007
lradius 25.0802 0 0
lwrist 2.31238 0 0
lhand -15.9587 -24.383 0
lfingers 7.12502 0 0
lthumb 10.2398 5.3437 0
rclavicle 2.77985e-14 9.70265e-15 0
rhumerus -46.9493 7.67405 -83.1397
rradius 41.3817 0 0
rwrist -23.3709 0 0
rhand -29.7196 -21.2677 0
rfingers 7.12502 0 0
rthumb -3.04658 -51.2259 0
285
root 10.0077 16.8303 3.03562 5.44921 0.0491101 3.01903
lfemur -8.57424 5.27353 -29.5902
ltibia 23.1214 0 0
lfoot -19.3857 5.04074 0
ltoes -4.32916 0 0
rfemur -33.4304 -0.386279 16.2441
rtibia 46.8545 0 0
rfoot -20.082 -12.0732 0
rtoes -23.7713 0 0
lowerback -5.20947 -3.05512 -4.21952
upperback -0.226643 -3.88604 2.07863
thorax 3.13233 -2.01793 4.19714
lowerneck -21.7357 -3.80415 -11.5265
upperneck 22.6568 -4.4999 11.3103
head 11.5264 -1.6345 5.43295
lclavicle 2.88236e-14 9.75144e-15 0
lhumerus -13.6969 -17.1365 85.8088
lradius 25.3078 0 0
lwrist 2.56973 0 0
lhand -16.0481 -24.4241 0
lfingers 7.12502 0 0
lthumb 10.1537 5.30872 0
rclavicle 2.88236e-14 9.75144e-15 0
rhumerus -46.9586 7.6543 -83.0578
rradius 41.3189 0 0
rwrist -23.3345 0 0
rhand -29.7246 -21.2883 0
rfingers 7.12502 0 0
rthumb -3.05146 -51.2464 0
286
root 10.0249 16.8427 3.16551 5.38722 0.246472 3.09319
lfemur -7.64735 5.19469 -29.5673
ltibia 22.5588 0 0
lfoot -19.3787 4.95811 0
ltoes -4.51835 0 0
rfemur -34.2591 -0.395033 16.2048
rtibia 47.0346 0 0
rfoot -20.4756 -12.2343 0
rtoes -23.859 0 0
lowerback -5.21532 -3.156 -4.28259
upperback -0.18698 -4.01646 2.08867
thorax 3.1887 -2.08464 4.23149
lowerneck -21.7593 -3.78113 -11.5024
upperneck 22.721 -4.46983 11.2771
head 11.5471 -1.62178 5.42349
lclavicle 2.97545e-14 9.74283e-15 0
lhumerus -13.2874 -17.5387 85.9329
lradius 25.5361 0 0
lwrist 2.80837 0 0
lhand -16.1121 -24.462 0
lfingers 7.12502 0 0
lthumb 10.092 5.27515 0
rclavicle 2.97545e-14 9.74283e-15 0
rhumerus -46.976 7.63257 -82.9845
rradius 41.2382 0 0
rwrist -23.2852 0 0
rhand -29.7254 -21.3113 0
rfingers 7.12502 0 0
rthumb -3.05219 -51.2694 0
287
root 10.042 16.8551 3.29541 5.33532 0.439109 3.16007
lfemur -6.74476 5.12805 -29.5275
ltibia 22.0147 0 0
lfoot -19.3268 4.86362 0
ltoes -4.70401 0 0
rfemur -35.0177 -0.400849 16.1667
rtibia 47.1901 0 0
rfoot -20.789 -12.3529 0
rtoes -23.9307 0 0
lowerback -5.22608 -3.24966 -4.34183
upperback -0.154646 -4.13724 2.09752
thorax 3.23955 -2.14634 4.26291
lowerneck -21.7753 -3.76229 -11.4837
upperneck 22.7756 -4.44593 11.2515
head 11.5643 -1.61167 5.4165
lclavicle 3.05849e-14 9.67388e-15 0
lhumerus -12.9443 -17.9365 86.0733
lradius 25.7649 0 0
lwrist 3.02688 0 0
lhand -16.1493 -24.4965 0
lfingers 7.12502 0 0
lthumb 10.0561 5.24312 0
rclavicle 3.05849e-14 9.67388e-15 0
rhumerus -47.002 7.60872 -82.9203
rradius 41.1386 0 0
rwrist -23.2224 0 0
rhand -29.7215 -21.3369 0
rfingers 7.12502 0 0
rthumb -3.04848 -51.2949 0
288
root 10.0592 16.8675 3.4253 5.29408 0.626505 3.21933
lfemur -5.86833 5.07437 -29.4702
ltibia 21.4907 0 0
lfoot -19.2279 4.75667 0
ltoes -4.88553 0 0
rfemur -35.702 -0.40365 16.1294
rtibia 47.32 0 0
rfoot -21.0176 -12.4269 0
rtoes -23.9856 0 0
lowerback -5.242 -3.3357 -4.39707
upperback -0.130055 -4.24785 2.10506
thorax 3.28454 -2.20277 4.29124
lowerneck -21.7834 -3.74783 -11.471
upperneck 22.8202 -4.42849 11.2339
head 11.5777 -1.60427 5.41212
lclavicle 3.13086e-14 9.54166e-15 0
lhumerus -12.6708 -18.3295 86.2308
lradius 25.9938 0 0
lwrist 3.22382 0 0
lhand -16.1584 -24.5274 0
lfingers 7.12502 0 0
lthumb 10.0474 5.21273 0
rclavicle 3.13086e-14 9.54166e-15 0
rhumerus -47.0372 7.58261 -82.8659
rradius 41.019 0 0
rwrist -23.1454 0 0
rhand -29.7128 -21.3649 0
rfingers 7.12502 0 0
rthumb -3.04005 -51.323 0
